<mxfile host="65bd71144e">
    <diagram id="hsp9-NueZwUlGCEhFkof" name="Use Case">
        <mxGraphModel dx="1636" dy="1974" grid="1" gridSize="10" guides="1" tooltips="1" connect="1" arrows="1" fold="1" page="0" pageScale="1" pageWidth="850" pageHeight="1100" math="0" shadow="0">
            <root>
                <mxCell id="0"/>
                <mxCell id="1" parent="0"/>
                <mxCell id="6rFO9PX0ZzHkZmPm3LeD-29" style="edgeStyle=none;html=1;entryX=0;entryY=0.5;entryDx=0;entryDy=0;labelBackgroundColor=none;fontSize=30;fontColor=default;endArrow=none;endFill=0;" parent="1" source="2" target="6rFO9PX0ZzHkZmPm3LeD-9" edge="1">
                    <mxGeometry relative="1" as="geometry"/>
                </mxCell>
                <mxCell id="6rFO9PX0ZzHkZmPm3LeD-30" style="edgeStyle=none;html=1;entryX=0;entryY=0.5;entryDx=0;entryDy=0;labelBackgroundColor=none;fontSize=30;fontColor=default;endArrow=none;endFill=0;" parent="1" source="2" target="6rFO9PX0ZzHkZmPm3LeD-7" edge="1">
                    <mxGeometry relative="1" as="geometry"/>
                </mxCell>
                <mxCell id="6rFO9PX0ZzHkZmPm3LeD-31" style="edgeStyle=none;html=1;entryX=0;entryY=0.5;entryDx=0;entryDy=0;labelBackgroundColor=none;fontSize=30;fontColor=default;endArrow=none;endFill=0;" parent="1" source="2" target="6rFO9PX0ZzHkZmPm3LeD-8" edge="1">
                    <mxGeometry relative="1" as="geometry"/>
                </mxCell>
                <mxCell id="6rFO9PX0ZzHkZmPm3LeD-33" style="edgeStyle=none;html=1;entryX=0;entryY=0;entryDx=0;entryDy=0;labelBackgroundColor=none;fontSize=17;fontColor=default;endArrow=none;endFill=0;" parent="1" source="2" target="6rFO9PX0ZzHkZmPm3LeD-32" edge="1">
                    <mxGeometry relative="1" as="geometry"/>
                </mxCell>
                <mxCell id="2" value="Aluno" style="shape=umlActor;verticalLabelPosition=bottom;verticalAlign=top;html=1;outlineConnect=0;fontSize=17;" parent="1" vertex="1">
                    <mxGeometry x="-110" y="450" width="60" height="120" as="geometry"/>
                </mxCell>
                <mxCell id="6rFO9PX0ZzHkZmPm3LeD-7" value="&lt;span data-lucid-content=&quot;{&amp;quot;t&amp;quot;:&amp;quot;Fazer cadastro/login&amp;quot;,&amp;quot;m&amp;quot;:[{&amp;quot;s&amp;quot;:0,&amp;quot;n&amp;quot;:&amp;quot;s&amp;quot;,&amp;quot;v&amp;quot;:40,&amp;quot;e&amp;quot;:20}]}&quot; data-lucid-type=&quot;application/vnd.lucid.text&quot;&gt;&lt;font style=&quot;font-size: 17px;&quot;&gt;Fazer cadastro/login&lt;/font&gt;&lt;/span&gt;" style="ellipse;whiteSpace=wrap;html=1;" parent="1" vertex="1">
                    <mxGeometry x="230" y="210" width="120" height="80" as="geometry"/>
                </mxCell>
                <mxCell id="6rFO9PX0ZzHkZmPm3LeD-8" value="&lt;span data-lucid-content=&quot;{&amp;quot;t&amp;quot;:&amp;quot;Cadastro de Paciente&amp;quot;,&amp;quot;m&amp;quot;:[{&amp;quot;s&amp;quot;:0,&amp;quot;n&amp;quot;:&amp;quot;s&amp;quot;,&amp;quot;v&amp;quot;:40,&amp;quot;e&amp;quot;:20}]}&quot; data-lucid-type=&quot;application/vnd.lucid.text&quot;&gt;&lt;span style=&quot;font-size: 17px;&quot;&gt;Cadastro de paciente&lt;/span&gt;&lt;/span&gt;" style="ellipse;whiteSpace=wrap;html=1;" parent="1" vertex="1">
                    <mxGeometry x="230" y="310" width="120" height="80" as="geometry"/>
                </mxCell>
                <mxCell id="6rFO9PX0ZzHkZmPm3LeD-15" value="&#10;&lt;span data-lucid-content=&quot;{&amp;quot;t&amp;quot;:&amp;quot;&lt;&lt;incluir&gt;&gt;&amp;quot;,&amp;quot;m&amp;quot;:[{&amp;quot;s&amp;quot;:0,&amp;quot;n&amp;quot;:&amp;quot;b&amp;quot;,&amp;quot;v&amp;quot;:true,&amp;quot;e&amp;quot;:11},{&amp;quot;s&amp;quot;:0,&amp;quot;n&amp;quot;:&amp;quot;c&amp;quot;,&amp;quot;v&amp;quot;:&amp;quot;333333ff&amp;quot;,&amp;quot;e&amp;quot;:11},{&amp;quot;s&amp;quot;:0,&amp;quot;n&amp;quot;:&amp;quot;fsp&amp;quot;,&amp;quot;v&amp;quot;:&amp;quot;ss_presetShapeStyle1_textStyle&amp;quot;,&amp;quot;e&amp;quot;:11},{&amp;quot;s&amp;quot;:0,&amp;quot;n&amp;quot;:&amp;quot;s&amp;quot;,&amp;quot;v&amp;quot;:31.111111111111114,&amp;quot;e&amp;quot;:11}]}&quot; data-lucid-type=&quot;application/vnd.lucid.text&quot; style=&quot;font-size: 11px;&quot;&gt;&lt;span style=&quot;font-weight: bold; font-size: 11px;&quot;&gt;&amp;lt;&amp;lt;incluir&amp;gt;&amp;gt;&lt;/span&gt;&lt;/span&gt;&#10;&#10;" style="edgeStyle=none;html=1;entryX=1;entryY=0;entryDx=0;entryDy=0;dashed=1;fontSize=11;labelBackgroundColor=none;fontColor=default;" parent="1" source="6rFO9PX0ZzHkZmPm3LeD-9" target="6rFO9PX0ZzHkZmPm3LeD-12" edge="1">
                    <mxGeometry relative="1" as="geometry"/>
                </mxCell>
                <mxCell id="6rFO9PX0ZzHkZmPm3LeD-9" value="&lt;span data-lucid-content=&quot;{&amp;quot;t&amp;quot;:&amp;quot;Gerenciamento de Prontuário&amp;quot;,&amp;quot;m&amp;quot;:[{&amp;quot;s&amp;quot;:0,&amp;quot;n&amp;quot;:&amp;quot;s&amp;quot;,&amp;quot;v&amp;quot;:40,&amp;quot;e&amp;quot;:27}]}&quot; data-lucid-type=&quot;application/vnd.lucid.text&quot;&gt;&lt;span style=&quot;font-size: 17px;&quot;&gt;Gerenciamento de prontuário&lt;/span&gt;&lt;/span&gt;" style="ellipse;whiteSpace=wrap;html=1;" parent="1" vertex="1">
                    <mxGeometry x="220" y="420" width="140" height="90" as="geometry"/>
                </mxCell>
                <mxCell id="6rFO9PX0ZzHkZmPm3LeD-10" value="&lt;span data-lucid-content=&quot;{&amp;quot;t&amp;quot;:&amp;quot;Imprimir prontuário&amp;quot;,&amp;quot;m&amp;quot;:[{&amp;quot;s&amp;quot;:0,&amp;quot;n&amp;quot;:&amp;quot;s&amp;quot;,&amp;quot;v&amp;quot;:40,&amp;quot;e&amp;quot;:19}]}&quot; data-lucid-type=&quot;application/vnd.lucid.text&quot;&gt;&lt;span style=&quot;font-size: 17px;&quot;&gt;Imprimir prontuário&lt;/span&gt;&lt;/span&gt;" style="ellipse;whiteSpace=wrap;html=1;" parent="1" vertex="1">
                    <mxGeometry x="390" y="520" width="120" height="80" as="geometry"/>
                </mxCell>
                <mxCell id="6rFO9PX0ZzHkZmPm3LeD-11" value="&lt;span data-lucid-content=&quot;{&amp;quot;t&amp;quot;:&amp;quot;Adicionar, Digitalizar ou Atualizar prontuário&amp;quot;,&amp;quot;m&amp;quot;:[{&amp;quot;s&amp;quot;:0,&amp;quot;n&amp;quot;:&amp;quot;s&amp;quot;,&amp;quot;v&amp;quot;:40,&amp;quot;e&amp;quot;:46}]}&quot; data-lucid-type=&quot;application/vnd.lucid.text&quot;&gt;&lt;font style=&quot;font-size: 17px;&quot;&gt;Adicionar, Digitalizar ou Atualizar prontuário&lt;/font&gt;&lt;/span&gt;" style="ellipse;whiteSpace=wrap;html=1;" parent="1" vertex="1">
                    <mxGeometry x="240" y="580" width="170" height="120" as="geometry"/>
                </mxCell>
                <mxCell id="6rFO9PX0ZzHkZmPm3LeD-12" value="&lt;span data-lucid-content=&quot;{&amp;quot;t&amp;quot;:&amp;quot;Adicionar comentário&amp;quot;,&amp;quot;m&amp;quot;:[{&amp;quot;s&amp;quot;:0,&amp;quot;n&amp;quot;:&amp;quot;s&amp;quot;,&amp;quot;v&amp;quot;:40,&amp;quot;e&amp;quot;:20}]}&quot; data-lucid-type=&quot;application/vnd.lucid.text&quot;&gt;&lt;span style=&quot;font-size: 17px;&quot;&gt;Adicionar comentário&lt;/span&gt;&lt;/span&gt;" style="ellipse;whiteSpace=wrap;html=1;" parent="1" vertex="1">
                    <mxGeometry x="120" y="550" width="120" height="80" as="geometry"/>
                </mxCell>
                <mxCell id="6rFO9PX0ZzHkZmPm3LeD-16" value="&#10;&lt;span data-lucid-content=&quot;{&amp;quot;t&amp;quot;:&amp;quot;&lt;&lt;incluir&gt;&gt;&amp;quot;,&amp;quot;m&amp;quot;:[{&amp;quot;s&amp;quot;:0,&amp;quot;n&amp;quot;:&amp;quot;b&amp;quot;,&amp;quot;v&amp;quot;:true,&amp;quot;e&amp;quot;:11},{&amp;quot;s&amp;quot;:0,&amp;quot;n&amp;quot;:&amp;quot;c&amp;quot;,&amp;quot;v&amp;quot;:&amp;quot;333333ff&amp;quot;,&amp;quot;e&amp;quot;:11},{&amp;quot;s&amp;quot;:0,&amp;quot;n&amp;quot;:&amp;quot;fsp&amp;quot;,&amp;quot;v&amp;quot;:&amp;quot;ss_presetShapeStyle1_textStyle&amp;quot;,&amp;quot;e&amp;quot;:11},{&amp;quot;s&amp;quot;:0,&amp;quot;n&amp;quot;:&amp;quot;s&amp;quot;,&amp;quot;v&amp;quot;:31.111111111111114,&amp;quot;e&amp;quot;:11}]}&quot; data-lucid-type=&quot;application/vnd.lucid.text&quot; style=&quot;font-size: 11px;&quot;&gt;&lt;span style=&quot;font-weight: bold; font-size: 11px;&quot;&gt;&amp;lt;&amp;lt;incluir&amp;gt;&amp;gt;&lt;/span&gt;&lt;/span&gt;&#10;&#10;" style="edgeStyle=none;html=1;entryX=0.5;entryY=0;entryDx=0;entryDy=0;dashed=1;fontSize=11;labelBackgroundColor=none;fontColor=default;" parent="1" source="6rFO9PX0ZzHkZmPm3LeD-9" target="6rFO9PX0ZzHkZmPm3LeD-11" edge="1">
                    <mxGeometry relative="1" as="geometry">
                        <mxPoint x="271.441233607364" y="516.0845411262485" as="sourcePoint"/>
                        <mxPoint x="232.42640687119297" y="571.7157287525381" as="targetPoint"/>
                    </mxGeometry>
                </mxCell>
                <mxCell id="6rFO9PX0ZzHkZmPm3LeD-17" value="&#10;&lt;span data-lucid-content=&quot;{&amp;quot;t&amp;quot;:&amp;quot;&lt;&lt;incluir&gt;&gt;&amp;quot;,&amp;quot;m&amp;quot;:[{&amp;quot;s&amp;quot;:0,&amp;quot;n&amp;quot;:&amp;quot;b&amp;quot;,&amp;quot;v&amp;quot;:true,&amp;quot;e&amp;quot;:11},{&amp;quot;s&amp;quot;:0,&amp;quot;n&amp;quot;:&amp;quot;c&amp;quot;,&amp;quot;v&amp;quot;:&amp;quot;333333ff&amp;quot;,&amp;quot;e&amp;quot;:11},{&amp;quot;s&amp;quot;:0,&amp;quot;n&amp;quot;:&amp;quot;fsp&amp;quot;,&amp;quot;v&amp;quot;:&amp;quot;ss_presetShapeStyle1_textStyle&amp;quot;,&amp;quot;e&amp;quot;:11},{&amp;quot;s&amp;quot;:0,&amp;quot;n&amp;quot;:&amp;quot;s&amp;quot;,&amp;quot;v&amp;quot;:31.111111111111114,&amp;quot;e&amp;quot;:11}]}&quot; data-lucid-type=&quot;application/vnd.lucid.text&quot; style=&quot;font-size: 11px;&quot;&gt;&lt;span style=&quot;font-weight: bold; font-size: 11px;&quot;&gt;&amp;lt;&amp;lt;incluir&amp;gt;&amp;gt;&lt;/span&gt;&lt;/span&gt;&#10;&#10;" style="edgeStyle=none;html=1;entryX=0;entryY=0;entryDx=0;entryDy=0;dashed=1;fontSize=11;labelBackgroundColor=none;fontColor=default;" parent="1" source="6rFO9PX0ZzHkZmPm3LeD-9" target="6rFO9PX0ZzHkZmPm3LeD-10" edge="1">
                    <mxGeometry relative="1" as="geometry">
                        <mxPoint x="313.30705021456595" y="519.179406712359" as="sourcePoint"/>
                        <mxPoint x="335.0000000000001" y="590" as="targetPoint"/>
                    </mxGeometry>
                </mxCell>
                <mxCell id="6rFO9PX0ZzHkZmPm3LeD-27" style="edgeStyle=none;html=1;exitX=1;exitY=0;exitDx=0;exitDy=0;entryX=0;entryY=1;entryDx=0;entryDy=0;labelBackgroundColor=none;fontSize=30;fontColor=default;endArrow=classic;endFill=1;dashed=1;" parent="1" source="6rFO9PX0ZzHkZmPm3LeD-18" target="6rFO9PX0ZzHkZmPm3LeD-19" edge="1">
                    <mxGeometry relative="1" as="geometry"/>
                </mxCell>
                <mxCell id="6rFO9PX0ZzHkZmPm3LeD-38" value="&amp;lt;&amp;lt;incluir&amp;gt;&amp;gt;" style="edgeLabel;html=1;align=center;verticalAlign=middle;resizable=0;points=[];fontSize=17;fontColor=default;" parent="6rFO9PX0ZzHkZmPm3LeD-27" vertex="1" connectable="0">
                    <mxGeometry x="-0.2519" y="-1" relative="1" as="geometry">
                        <mxPoint x="-28" y="25" as="offset"/>
                    </mxGeometry>
                </mxCell>
                <mxCell id="6rFO9PX0ZzHkZmPm3LeD-18" value="&lt;span data-lucid-content=&quot;{&amp;quot;t&amp;quot;:&amp;quot;Cadastro de Paciente&amp;quot;,&amp;quot;m&amp;quot;:[{&amp;quot;s&amp;quot;:0,&amp;quot;n&amp;quot;:&amp;quot;s&amp;quot;,&amp;quot;v&amp;quot;:40,&amp;quot;e&amp;quot;:20}]}&quot; data-lucid-type=&quot;application/vnd.lucid.text&quot;&gt;&lt;span style=&quot;font-size: 17px;&quot;&gt;Sistema&lt;/span&gt;&lt;/span&gt;" style="ellipse;whiteSpace=wrap;html=1;" parent="1" vertex="1">
                    <mxGeometry x="290" y="870" width="120" height="80" as="geometry"/>
                </mxCell>
                <mxCell id="6rFO9PX0ZzHkZmPm3LeD-28" style="edgeStyle=none;html=1;exitX=1;exitY=0;exitDx=0;exitDy=0;labelBackgroundColor=none;fontSize=30;fontColor=default;endArrow=none;endFill=0;" parent="1" source="6rFO9PX0ZzHkZmPm3LeD-19" target="6rFO9PX0ZzHkZmPm3LeD-23" edge="1">
                    <mxGeometry relative="1" as="geometry"/>
                </mxCell>
                <mxCell id="6rFO9PX0ZzHkZmPm3LeD-19" value="&lt;span data-lucid-content=&quot;{&amp;quot;t&amp;quot;:&amp;quot;Aviso de Ausência&amp;quot;,&amp;quot;m&amp;quot;:[{&amp;quot;s&amp;quot;:0,&amp;quot;n&amp;quot;:&amp;quot;s&amp;quot;,&amp;quot;v&amp;quot;:40,&amp;quot;e&amp;quot;:17}]}&quot; data-lucid-type=&quot;application/vnd.lucid.text&quot;&gt;&lt;span style=&quot;font-size: 17px;&quot;&gt;Aviso de ausência&lt;/span&gt;&lt;/span&gt;" style="ellipse;whiteSpace=wrap;html=1;" parent="1" vertex="1">
                    <mxGeometry x="640" y="400" width="120" height="80" as="geometry"/>
                </mxCell>
                <mxCell id="6rFO9PX0ZzHkZmPm3LeD-25" style="edgeStyle=none;html=1;labelBackgroundColor=none;fontSize=17;fontColor=default;endArrow=none;endFill=0;" parent="1" source="6rFO9PX0ZzHkZmPm3LeD-22" target="6rFO9PX0ZzHkZmPm3LeD-24" edge="1">
                    <mxGeometry relative="1" as="geometry"/>
                </mxCell>
                <mxCell id="6rFO9PX0ZzHkZmPm3LeD-39" style="edgeStyle=none;html=1;entryX=1;entryY=0.5;entryDx=0;entryDy=0;labelBackgroundColor=none;fontSize=17;fontColor=default;endArrow=none;endFill=0;" parent="1" source="6rFO9PX0ZzHkZmPm3LeD-22" target="6rFO9PX0ZzHkZmPm3LeD-8" edge="1">
                    <mxGeometry relative="1" as="geometry">
                        <Array as="points"/>
                    </mxGeometry>
                </mxCell>
                <mxCell id="6rFO9PX0ZzHkZmPm3LeD-41" style="edgeStyle=none;html=1;entryX=1;entryY=0.5;entryDx=0;entryDy=0;labelBackgroundColor=none;fontSize=17;fontColor=default;endArrow=none;endFill=0;" parent="1" source="6rFO9PX0ZzHkZmPm3LeD-22" target="6rFO9PX0ZzHkZmPm3LeD-9" edge="1">
                    <mxGeometry relative="1" as="geometry">
                        <Array as="points">
                            <mxPoint x="880" y="610"/>
                        </Array>
                    </mxGeometry>
                </mxCell>
                <mxCell id="6rFO9PX0ZzHkZmPm3LeD-22" value="Administrador" style="shape=umlActor;verticalLabelPosition=bottom;verticalAlign=top;html=1;outlineConnect=0;fontSize=17;" parent="1" vertex="1">
                    <mxGeometry x="880" y="650" width="60" height="120" as="geometry"/>
                </mxCell>
                <mxCell id="6rFO9PX0ZzHkZmPm3LeD-35" style="edgeStyle=none;html=1;entryX=1;entryY=0.5;entryDx=0;entryDy=0;labelBackgroundColor=none;fontSize=17;fontColor=default;endArrow=none;endFill=0;" parent="1" source="6rFO9PX0ZzHkZmPm3LeD-23" target="6rFO9PX0ZzHkZmPm3LeD-7" edge="1">
                    <mxGeometry relative="1" as="geometry"/>
                </mxCell>
                <mxCell id="6rFO9PX0ZzHkZmPm3LeD-36" style="edgeStyle=none;html=1;entryX=1;entryY=0.5;entryDx=0;entryDy=0;labelBackgroundColor=none;fontSize=17;fontColor=default;endArrow=none;endFill=0;" parent="1" source="6rFO9PX0ZzHkZmPm3LeD-23" target="6rFO9PX0ZzHkZmPm3LeD-8" edge="1">
                    <mxGeometry relative="1" as="geometry"/>
                </mxCell>
                <mxCell id="6rFO9PX0ZzHkZmPm3LeD-37" style="edgeStyle=none;html=1;entryX=1;entryY=0.5;entryDx=0;entryDy=0;labelBackgroundColor=none;fontSize=17;fontColor=default;endArrow=none;endFill=0;" parent="1" source="6rFO9PX0ZzHkZmPm3LeD-23" target="6rFO9PX0ZzHkZmPm3LeD-9" edge="1">
                    <mxGeometry relative="1" as="geometry"/>
                </mxCell>
                <mxCell id="6rFO9PX0ZzHkZmPm3LeD-23" value="Professor" style="shape=umlActor;verticalLabelPosition=bottom;verticalAlign=top;html=1;outlineConnect=0;fontSize=17;" parent="1" vertex="1">
                    <mxGeometry x="880" y="210" width="60" height="120" as="geometry"/>
                </mxCell>
                <mxCell id="6rFO9PX0ZzHkZmPm3LeD-24" value="&lt;span data-lucid-content=&quot;{&amp;quot;t&amp;quot;:&amp;quot;Gerenciamento do Sistema&amp;quot;,&amp;quot;m&amp;quot;:[{&amp;quot;s&amp;quot;:0,&amp;quot;n&amp;quot;:&amp;quot;s&amp;quot;,&amp;quot;v&amp;quot;:40,&amp;quot;e&amp;quot;:24}]}&quot; data-lucid-type=&quot;application/vnd.lucid.text&quot;&gt;&lt;span style=&quot;font-size: 17px;&quot;&gt;Gerenciamento do sistema&lt;/span&gt;&lt;/span&gt;" style="ellipse;whiteSpace=wrap;html=1;" parent="1" vertex="1">
                    <mxGeometry x="510" y="810" width="140" height="90" as="geometry"/>
                </mxCell>
                <mxCell id="6rFO9PX0ZzHkZmPm3LeD-26" value="Sistema de Psicologia" style="text;html=1;align=center;verticalAlign=middle;resizable=0;points=[];autosize=1;strokeColor=none;fillColor=none;fontSize=30;fontColor=default;" parent="1" vertex="1">
                    <mxGeometry x="260" y="-40" width="320" height="50" as="geometry"/>
                </mxCell>
                <mxCell id="6rFO9PX0ZzHkZmPm3LeD-34" value="&amp;lt;&amp;lt;incluir&amp;gt;&amp;gt;" style="edgeStyle=none;html=1;exitX=1;exitY=1;exitDx=0;exitDy=0;labelBackgroundColor=none;fontSize=17;fontColor=default;endArrow=classic;endFill=1;dashed=1;" parent="1" source="6rFO9PX0ZzHkZmPm3LeD-32" edge="1">
                    <mxGeometry relative="1" as="geometry">
                        <mxPoint x="310" y="900" as="targetPoint"/>
                    </mxGeometry>
                </mxCell>
                <mxCell id="6rFO9PX0ZzHkZmPm3LeD-32" value="Envio de relatório" style="ellipse;whiteSpace=wrap;html=1;fontSize=17;direction=east;" parent="1" vertex="1">
                    <mxGeometry x="120" y="740" width="130" height="90" as="geometry"/>
                </mxCell>
                <mxCell id="6rFO9PX0ZzHkZmPm3LeD-43" style="edgeStyle=none;html=1;labelBackgroundColor=none;fontSize=17;fontColor=default;endArrow=none;endFill=0;" parent="1" source="6rFO9PX0ZzHkZmPm3LeD-42" target="6rFO9PX0ZzHkZmPm3LeD-22" edge="1">
                    <mxGeometry relative="1" as="geometry"/>
                </mxCell>
                <mxCell id="6rFO9PX0ZzHkZmPm3LeD-44" style="edgeStyle=none;html=1;exitX=1;exitY=0;exitDx=0;exitDy=0;labelBackgroundColor=none;fontSize=17;fontColor=default;endArrow=none;endFill=0;" parent="1" source="6rFO9PX0ZzHkZmPm3LeD-42" target="6rFO9PX0ZzHkZmPm3LeD-23" edge="1">
                    <mxGeometry relative="1" as="geometry"/>
                </mxCell>
                <mxCell id="6rFO9PX0ZzHkZmPm3LeD-42" value="Consulta e filtragem de prontuários" style="ellipse;whiteSpace=wrap;html=1;fontSize=17;" parent="1" vertex="1">
                    <mxGeometry x="580" y="640" width="140" height="90" as="geometry"/>
                </mxCell>
            </root>
        </mxGraphModel>
    </diagram>
    <diagram id="pk8VP5G30imUCMSdl7ce" name="DER">
        <mxGraphModel dx="1283" dy="1524" grid="1" gridSize="10" guides="1" tooltips="1" connect="1" arrows="1" fold="1" page="0" pageScale="1" pageWidth="850" pageHeight="1100" math="0" shadow="0">
            <root>
                <mxCell id="0"/>
                <mxCell id="1" parent="0"/>
                <mxCell id="xlqCLeBauGanB82xp4Bk-2" value="Administrador" style="shape=table;startSize=30;container=1;collapsible=1;childLayout=tableLayout;fixedRows=1;rowLines=0;fontStyle=1;align=center;resizeLast=1;verticalAlign=middle;" parent="1" vertex="1">
                    <mxGeometry x="-100" y="-90" width="180" height="170" as="geometry"/>
                </mxCell>
                <mxCell id="xlqCLeBauGanB82xp4Bk-3" value="" style="shape=tableRow;horizontal=0;startSize=0;swimlaneHead=0;swimlaneBody=0;fillColor=none;collapsible=0;dropTarget=0;points=[[0,0.5],[1,0.5]];portConstraint=eastwest;top=0;left=0;right=0;bottom=1;" parent="xlqCLeBauGanB82xp4Bk-2" vertex="1">
                    <mxGeometry y="30" width="180" height="30" as="geometry"/>
                </mxCell>
                <mxCell id="xlqCLeBauGanB82xp4Bk-4" value="PK" style="shape=partialRectangle;connectable=0;fillColor=none;top=0;left=0;bottom=0;right=0;fontStyle=1;overflow=hidden;" parent="xlqCLeBauGanB82xp4Bk-3" vertex="1">
                    <mxGeometry width="30" height="30" as="geometry">
                        <mxRectangle width="30" height="30" as="alternateBounds"/>
                    </mxGeometry>
                </mxCell>
                <mxCell id="xlqCLeBauGanB82xp4Bk-5" value="ID int(3)" style="shape=partialRectangle;connectable=0;fillColor=none;top=0;left=0;bottom=0;right=0;align=left;spacingLeft=6;fontStyle=5;overflow=hidden;" parent="xlqCLeBauGanB82xp4Bk-3" vertex="1">
                    <mxGeometry x="30" width="150" height="30" as="geometry">
                        <mxRectangle width="150" height="30" as="alternateBounds"/>
                    </mxGeometry>
                </mxCell>
                <mxCell id="xlqCLeBauGanB82xp4Bk-6" value="" style="shape=tableRow;horizontal=0;startSize=0;swimlaneHead=0;swimlaneBody=0;fillColor=none;collapsible=0;dropTarget=0;points=[[0,0.5],[1,0.5]];portConstraint=eastwest;top=0;left=0;right=0;bottom=0;" parent="xlqCLeBauGanB82xp4Bk-2" vertex="1">
                    <mxGeometry y="60" width="180" height="110" as="geometry"/>
                </mxCell>
                <mxCell id="xlqCLeBauGanB82xp4Bk-7" value="" style="shape=partialRectangle;connectable=0;fillColor=none;top=0;left=0;bottom=0;right=0;editable=1;overflow=hidden;" parent="xlqCLeBauGanB82xp4Bk-6" vertex="1">
                    <mxGeometry width="30" height="110" as="geometry">
                        <mxRectangle width="30" height="110" as="alternateBounds"/>
                    </mxGeometry>
                </mxCell>
                <mxCell id="xlqCLeBauGanB82xp4Bk-8" value="nome varchar (200)&#10;email varchar(200)&#10;telefone int(12)&#10;login varchar(200)&#10;senha varchar(200)&#10;nivel varchar(4)" style="shape=partialRectangle;connectable=0;fillColor=none;top=0;left=0;bottom=0;right=0;align=left;spacingLeft=6;overflow=hidden;verticalAlign=top;fontSize=13;" parent="xlqCLeBauGanB82xp4Bk-6" vertex="1">
                    <mxGeometry x="30" width="150" height="110" as="geometry">
                        <mxRectangle width="150" height="110" as="alternateBounds"/>
                    </mxGeometry>
                </mxCell>
                <mxCell id="xlqCLeBauGanB82xp4Bk-28" value="" style="edgeStyle=entityRelationEdgeStyle;fontSize=12;html=1;endArrow=ERoneToMany;" parent="1" edge="1">
                    <mxGeometry width="100" height="100" relative="1" as="geometry">
                        <mxPoint x="-20" y="610" as="sourcePoint"/>
                        <mxPoint x="50" y="610" as="targetPoint"/>
                    </mxGeometry>
                </mxCell>
                <mxCell id="xlqCLeBauGanB82xp4Bk-29" value="" style="edgeStyle=entityRelationEdgeStyle;fontSize=12;html=1;endArrow=ERzeroToMany;endFill=1;" parent="1" edge="1">
                    <mxGeometry width="100" height="100" relative="1" as="geometry">
                        <mxPoint x="-30" y="590" as="sourcePoint"/>
                        <mxPoint x="40" y="590" as="targetPoint"/>
                    </mxGeometry>
                </mxCell>
                <mxCell id="xlqCLeBauGanB82xp4Bk-30" value="" style="edgeStyle=entityRelationEdgeStyle;fontSize=12;html=1;endArrow=ERmandOne;" parent="1" edge="1">
                    <mxGeometry width="100" height="100" relative="1" as="geometry">
                        <mxPoint x="-10" y="630" as="sourcePoint"/>
                        <mxPoint x="60" y="630" as="targetPoint"/>
                    </mxGeometry>
                </mxCell>
                <mxCell id="xlqCLeBauGanB82xp4Bk-31" value="" style="edgeStyle=entityRelationEdgeStyle;fontSize=12;html=1;endArrow=ERmandOne;startArrow=ERmandOne;" parent="1" edge="1">
                    <mxGeometry width="100" height="100" relative="1" as="geometry">
                        <mxPoint y="650" as="sourcePoint"/>
                        <mxPoint x="70" y="650" as="targetPoint"/>
                    </mxGeometry>
                </mxCell>
                <mxCell id="xlqCLeBauGanB82xp4Bk-32" value="" style="edgeStyle=entityRelationEdgeStyle;fontSize=12;html=1;endArrow=ERone;endFill=1;" parent="1" edge="1">
                    <mxGeometry width="100" height="100" relative="1" as="geometry">
                        <mxPoint x="10" y="670" as="sourcePoint"/>
                        <mxPoint x="80" y="670" as="targetPoint"/>
                    </mxGeometry>
                </mxCell>
                <mxCell id="xlqCLeBauGanB82xp4Bk-33" value="" style="edgeStyle=entityRelationEdgeStyle;fontSize=12;html=1;endArrow=ERzeroToOne;endFill=1;" parent="1" edge="1">
                    <mxGeometry width="100" height="100" relative="1" as="geometry">
                        <mxPoint x="20" y="690" as="sourcePoint"/>
                        <mxPoint x="90" y="690" as="targetPoint"/>
                    </mxGeometry>
                </mxCell>
                <mxCell id="xlqCLeBauGanB82xp4Bk-34" value="" style="edgeStyle=entityRelationEdgeStyle;fontSize=12;html=1;endArrow=ERmany;" parent="1" edge="1">
                    <mxGeometry width="100" height="100" relative="1" as="geometry">
                        <mxPoint x="-40" y="570" as="sourcePoint"/>
                        <mxPoint x="30" y="570" as="targetPoint"/>
                    </mxGeometry>
                </mxCell>
                <mxCell id="xlqCLeBauGanB82xp4Bk-52" value="" style="edgeStyle=entityRelationEdgeStyle;fontSize=12;html=1;endArrow=ERmany;startArrow=ERmany;" parent="1" edge="1">
                    <mxGeometry width="100" height="100" relative="1" as="geometry">
                        <mxPoint x="-50" y="550" as="sourcePoint"/>
                        <mxPoint x="20" y="550" as="targetPoint"/>
                    </mxGeometry>
                </mxCell>
                <mxCell id="xlqCLeBauGanB82xp4Bk-53" value="" style="edgeStyle=entityRelationEdgeStyle;fontSize=12;html=1;endArrow=ERzeroToMany;startArrow=ERzeroToOne;" parent="1" edge="1">
                    <mxGeometry width="100" height="100" relative="1" as="geometry">
                        <mxPoint x="30" y="710" as="sourcePoint"/>
                        <mxPoint x="100" y="710" as="targetPoint"/>
                    </mxGeometry>
                </mxCell>
                <mxCell id="xlqCLeBauGanB82xp4Bk-54" value="" style="edgeStyle=entityRelationEdgeStyle;fontSize=12;html=1;endArrow=ERzeroToMany;startArrow=ERmandOne;" parent="1" edge="1">
                    <mxGeometry width="100" height="100" relative="1" as="geometry">
                        <mxPoint x="40" y="730" as="sourcePoint"/>
                        <mxPoint x="110" y="730" as="targetPoint"/>
                    </mxGeometry>
                </mxCell>
                <mxCell id="xlqCLeBauGanB82xp4Bk-55" value="" style="edgeStyle=entityRelationEdgeStyle;fontSize=12;html=1;endArrow=ERzeroToOne;startArrow=ERmandOne;" parent="1" edge="1">
                    <mxGeometry width="100" height="100" relative="1" as="geometry">
                        <mxPoint x="50" y="750" as="sourcePoint"/>
                        <mxPoint x="120" y="750" as="targetPoint"/>
                    </mxGeometry>
                </mxCell>
                <mxCell id="xlqCLeBauGanB82xp4Bk-56" value="" style="edgeStyle=entityRelationEdgeStyle;fontSize=12;html=1;endArrow=ERoneToMany;startArrow=ERmandOne;" parent="1" edge="1">
                    <mxGeometry width="100" height="100" relative="1" as="geometry">
                        <mxPoint x="60" y="770" as="sourcePoint"/>
                        <mxPoint x="130" y="770" as="targetPoint"/>
                    </mxGeometry>
                </mxCell>
                <mxCell id="xlqCLeBauGanB82xp4Bk-57" value="" style="edgeStyle=entityRelationEdgeStyle;fontSize=12;html=1;endArrow=ERoneToMany;startArrow=ERzeroToOne;" parent="1" edge="1">
                    <mxGeometry width="100" height="100" relative="1" as="geometry">
                        <mxPoint x="70" y="790" as="sourcePoint"/>
                        <mxPoint x="140" y="790" as="targetPoint"/>
                    </mxGeometry>
                </mxCell>
                <mxCell id="xlqCLeBauGanB82xp4Bk-58" value="" style="edgeStyle=entityRelationEdgeStyle;fontSize=12;html=1;endArrow=ERoneToMany;startArrow=ERoneToMany;" parent="1" edge="1">
                    <mxGeometry width="100" height="100" relative="1" as="geometry">
                        <mxPoint x="80" y="810" as="sourcePoint"/>
                        <mxPoint x="150" y="810" as="targetPoint"/>
                    </mxGeometry>
                </mxCell>
                <mxCell id="xlqCLeBauGanB82xp4Bk-59" value="" style="edgeStyle=entityRelationEdgeStyle;fontSize=12;html=1;endArrow=ERoneToMany;startArrow=ERzeroToMany;" parent="1" edge="1">
                    <mxGeometry width="100" height="100" relative="1" as="geometry">
                        <mxPoint x="90" y="830" as="sourcePoint"/>
                        <mxPoint x="160" y="830" as="targetPoint"/>
                    </mxGeometry>
                </mxCell>
                <mxCell id="xlqCLeBauGanB82xp4Bk-60" value="" style="edgeStyle=entityRelationEdgeStyle;fontSize=12;html=1;endArrow=ERzeroToMany;endFill=1;startArrow=ERzeroToMany;" parent="1" edge="1">
                    <mxGeometry width="100" height="100" relative="1" as="geometry">
                        <mxPoint x="100" y="850" as="sourcePoint"/>
                        <mxPoint x="170" y="850" as="targetPoint"/>
                    </mxGeometry>
                </mxCell>
                <mxCell id="98w62dLo8Jn5VCTTJ6EJ-14" value="Professor" style="shape=table;startSize=30;container=1;collapsible=1;childLayout=tableLayout;fixedRows=1;rowLines=0;fontStyle=1;align=center;resizeLast=1;" vertex="1" parent="1">
                    <mxGeometry x="-100" y="120" width="180" height="170" as="geometry">
                        <mxRectangle x="-100" y="120" width="100" height="30" as="alternateBounds"/>
                    </mxGeometry>
                </mxCell>
                <mxCell id="98w62dLo8Jn5VCTTJ6EJ-15" value="" style="shape=tableRow;horizontal=0;startSize=0;swimlaneHead=0;swimlaneBody=0;fillColor=none;collapsible=0;dropTarget=0;points=[[0,0.5],[1,0.5]];portConstraint=eastwest;top=0;left=0;right=0;bottom=1;" vertex="1" parent="98w62dLo8Jn5VCTTJ6EJ-14">
                    <mxGeometry y="30" width="180" height="30" as="geometry"/>
                </mxCell>
                <mxCell id="98w62dLo8Jn5VCTTJ6EJ-16" value="PK" style="shape=partialRectangle;connectable=0;fillColor=none;top=0;left=0;bottom=0;right=0;fontStyle=1;overflow=hidden;" vertex="1" parent="98w62dLo8Jn5VCTTJ6EJ-15">
                    <mxGeometry width="30" height="30" as="geometry">
                        <mxRectangle width="30" height="30" as="alternateBounds"/>
                    </mxGeometry>
                </mxCell>
                <mxCell id="98w62dLo8Jn5VCTTJ6EJ-17" value="ID int(3)" style="shape=partialRectangle;connectable=0;fillColor=none;top=0;left=0;bottom=0;right=0;align=left;spacingLeft=6;fontStyle=5;overflow=hidden;" vertex="1" parent="98w62dLo8Jn5VCTTJ6EJ-15">
                    <mxGeometry x="30" width="150" height="30" as="geometry">
                        <mxRectangle width="150" height="30" as="alternateBounds"/>
                    </mxGeometry>
                </mxCell>
                <mxCell id="98w62dLo8Jn5VCTTJ6EJ-18" value="" style="shape=tableRow;horizontal=0;startSize=0;swimlaneHead=0;swimlaneBody=0;fillColor=none;collapsible=0;dropTarget=0;points=[[0,0.5],[1,0.5]];portConstraint=eastwest;top=0;left=0;right=0;bottom=0;" vertex="1" parent="98w62dLo8Jn5VCTTJ6EJ-14">
                    <mxGeometry y="60" width="180" height="110" as="geometry"/>
                </mxCell>
                <mxCell id="98w62dLo8Jn5VCTTJ6EJ-19" value="" style="shape=partialRectangle;connectable=0;fillColor=none;top=0;left=0;bottom=0;right=0;editable=1;overflow=hidden;" vertex="1" parent="98w62dLo8Jn5VCTTJ6EJ-18">
                    <mxGeometry width="30" height="110" as="geometry">
                        <mxRectangle width="30" height="110" as="alternateBounds"/>
                    </mxGeometry>
                </mxCell>
                <mxCell id="98w62dLo8Jn5VCTTJ6EJ-20" value="nome varchar (200)&#10;email varchar(200)&#10;telefone int(12)&#10;login varchar(200)&#10;senha varchar(200)&#10;nivel varchar(4)" style="shape=partialRectangle;connectable=0;fillColor=none;top=0;left=0;bottom=0;right=0;align=left;spacingLeft=6;overflow=hidden;verticalAlign=top;fontSize=13;" vertex="1" parent="98w62dLo8Jn5VCTTJ6EJ-18">
                    <mxGeometry x="30" width="150" height="110" as="geometry">
                        <mxRectangle width="150" height="110" as="alternateBounds"/>
                    </mxGeometry>
                </mxCell>
                <object label="Aluno" id="98w62dLo8Jn5VCTTJ6EJ-27">
                    <mxCell style="shape=table;startSize=30;container=1;collapsible=1;childLayout=tableLayout;fixedRows=1;rowLines=0;fontStyle=1;align=center;resizeLast=1;" vertex="1" parent="1">
                        <mxGeometry x="-100" y="330" width="180" height="170" as="geometry"/>
                    </mxCell>
                </object>
                <mxCell id="98w62dLo8Jn5VCTTJ6EJ-28" value="" style="shape=tableRow;horizontal=0;startSize=0;swimlaneHead=0;swimlaneBody=0;fillColor=none;collapsible=0;dropTarget=0;points=[[0,0.5],[1,0.5]];portConstraint=eastwest;top=0;left=0;right=0;bottom=1;" vertex="1" parent="98w62dLo8Jn5VCTTJ6EJ-27">
                    <mxGeometry y="30" width="180" height="30" as="geometry"/>
                </mxCell>
                <mxCell id="98w62dLo8Jn5VCTTJ6EJ-29" value="PK" style="shape=partialRectangle;connectable=0;fillColor=none;top=0;left=0;bottom=0;right=0;fontStyle=1;overflow=hidden;" vertex="1" parent="98w62dLo8Jn5VCTTJ6EJ-28">
                    <mxGeometry width="30" height="30" as="geometry">
                        <mxRectangle width="30" height="30" as="alternateBounds"/>
                    </mxGeometry>
                </mxCell>
                <mxCell id="98w62dLo8Jn5VCTTJ6EJ-30" value="ID int(3)" style="shape=partialRectangle;connectable=0;fillColor=none;top=0;left=0;bottom=0;right=0;align=left;spacingLeft=6;fontStyle=5;overflow=hidden;" vertex="1" parent="98w62dLo8Jn5VCTTJ6EJ-28">
                    <mxGeometry x="30" width="150" height="30" as="geometry">
                        <mxRectangle width="150" height="30" as="alternateBounds"/>
                    </mxGeometry>
                </mxCell>
                <mxCell id="98w62dLo8Jn5VCTTJ6EJ-31" value="" style="shape=tableRow;horizontal=0;startSize=0;swimlaneHead=0;swimlaneBody=0;fillColor=none;collapsible=0;dropTarget=0;points=[[0,0.5],[1,0.5]];portConstraint=eastwest;top=0;left=0;right=0;bottom=0;" vertex="1" parent="98w62dLo8Jn5VCTTJ6EJ-27">
                    <mxGeometry y="60" width="180" height="110" as="geometry"/>
                </mxCell>
                <mxCell id="98w62dLo8Jn5VCTTJ6EJ-32" value="" style="shape=partialRectangle;connectable=0;fillColor=none;top=0;left=0;bottom=0;right=0;editable=1;overflow=hidden;" vertex="1" parent="98w62dLo8Jn5VCTTJ6EJ-31">
                    <mxGeometry width="30" height="110" as="geometry">
                        <mxRectangle width="30" height="110" as="alternateBounds"/>
                    </mxGeometry>
                </mxCell>
                <mxCell id="98w62dLo8Jn5VCTTJ6EJ-33" value="nome varchar (200)&#10;email varchar(200)&#10;telefone int(12)&#10;login varchar(200)&#10;senha varchar(200)&#10;nivel varchar(4)" style="shape=partialRectangle;connectable=0;fillColor=none;top=0;left=0;bottom=0;right=0;align=left;spacingLeft=6;overflow=hidden;verticalAlign=top;fontSize=13;spacingTop=0;spacingBottom=0;spacingRight=0;perimeterSpacing=0;" vertex="1" parent="98w62dLo8Jn5VCTTJ6EJ-31">
                    <mxGeometry x="30" width="150" height="110" as="geometry">
                        <mxRectangle width="150" height="110" as="alternateBounds"/>
                    </mxGeometry>
                </mxCell>
                <mxCell id="98w62dLo8Jn5VCTTJ6EJ-108" value="Paciente" style="shape=table;startSize=30;container=1;collapsible=1;childLayout=tableLayout;fixedRows=1;rowLines=0;fontStyle=1;align=center;resizeLast=1;verticalAlign=middle;" vertex="1" parent="1">
                    <mxGeometry x="370" y="380" width="180" height="170" as="geometry"/>
                </mxCell>
                <mxCell id="98w62dLo8Jn5VCTTJ6EJ-109" value="" style="shape=tableRow;horizontal=0;startSize=0;swimlaneHead=0;swimlaneBody=0;fillColor=none;collapsible=0;dropTarget=0;points=[[0,0.5],[1,0.5]];portConstraint=eastwest;top=0;left=0;right=0;bottom=1;" vertex="1" parent="98w62dLo8Jn5VCTTJ6EJ-108">
                    <mxGeometry y="30" width="180" height="30" as="geometry"/>
                </mxCell>
                <mxCell id="98w62dLo8Jn5VCTTJ6EJ-110" value="PK" style="shape=partialRectangle;connectable=0;fillColor=none;top=0;left=0;bottom=0;right=0;fontStyle=1;overflow=hidden;" vertex="1" parent="98w62dLo8Jn5VCTTJ6EJ-109">
                    <mxGeometry width="30" height="30" as="geometry">
                        <mxRectangle width="30" height="30" as="alternateBounds"/>
                    </mxGeometry>
                </mxCell>
                <mxCell id="98w62dLo8Jn5VCTTJ6EJ-111" value="ID int(3)" style="shape=partialRectangle;connectable=0;fillColor=none;top=0;left=0;bottom=0;right=0;align=left;spacingLeft=6;fontStyle=5;overflow=hidden;" vertex="1" parent="98w62dLo8Jn5VCTTJ6EJ-109">
                    <mxGeometry x="30" width="150" height="30" as="geometry">
                        <mxRectangle width="150" height="30" as="alternateBounds"/>
                    </mxGeometry>
                </mxCell>
                <mxCell id="98w62dLo8Jn5VCTTJ6EJ-112" value="" style="shape=tableRow;horizontal=0;startSize=0;swimlaneHead=0;swimlaneBody=0;fillColor=none;collapsible=0;dropTarget=0;points=[[0,0.5],[1,0.5]];portConstraint=eastwest;top=0;left=0;right=0;bottom=0;" vertex="1" parent="98w62dLo8Jn5VCTTJ6EJ-108">
                    <mxGeometry y="60" width="180" height="110" as="geometry"/>
                </mxCell>
                <mxCell id="98w62dLo8Jn5VCTTJ6EJ-113" value="" style="shape=partialRectangle;connectable=0;fillColor=none;top=0;left=0;bottom=0;right=0;editable=1;overflow=hidden;" vertex="1" parent="98w62dLo8Jn5VCTTJ6EJ-112">
                    <mxGeometry width="30" height="110" as="geometry">
                        <mxRectangle width="30" height="110" as="alternateBounds"/>
                    </mxGeometry>
                </mxCell>
                <mxCell id="98w62dLo8Jn5VCTTJ6EJ-114" value="nome varchar(200)&#10;Idade date()&#10;contato string()" style="shape=partialRectangle;connectable=0;fillColor=none;top=0;left=0;bottom=0;right=0;align=left;spacingLeft=6;overflow=hidden;verticalAlign=top;fontSize=13;" vertex="1" parent="98w62dLo8Jn5VCTTJ6EJ-112">
                    <mxGeometry x="30" width="150" height="110" as="geometry">
                        <mxRectangle width="150" height="110" as="alternateBounds"/>
                    </mxGeometry>
                </mxCell>
                <mxCell id="98w62dLo8Jn5VCTTJ6EJ-115" value="Relatorio" style="shape=table;startSize=30;container=1;collapsible=1;childLayout=tableLayout;fixedRows=1;rowLines=0;fontStyle=1;align=center;resizeLast=1;verticalAlign=middle;" vertex="1" parent="1">
                    <mxGeometry x="530" y="150" width="180" height="170" as="geometry"/>
                </mxCell>
                <mxCell id="98w62dLo8Jn5VCTTJ6EJ-116" value="" style="shape=tableRow;horizontal=0;startSize=0;swimlaneHead=0;swimlaneBody=0;fillColor=none;collapsible=0;dropTarget=0;points=[[0,0.5],[1,0.5]];portConstraint=eastwest;top=0;left=0;right=0;bottom=1;" vertex="1" parent="98w62dLo8Jn5VCTTJ6EJ-115">
                    <mxGeometry y="30" width="180" height="30" as="geometry"/>
                </mxCell>
                <mxCell id="98w62dLo8Jn5VCTTJ6EJ-117" value="PK" style="shape=partialRectangle;connectable=0;fillColor=none;top=0;left=0;bottom=0;right=0;fontStyle=1;overflow=hidden;" vertex="1" parent="98w62dLo8Jn5VCTTJ6EJ-116">
                    <mxGeometry width="30" height="30" as="geometry">
                        <mxRectangle width="30" height="30" as="alternateBounds"/>
                    </mxGeometry>
                </mxCell>
                <mxCell id="98w62dLo8Jn5VCTTJ6EJ-118" value="ID int(3)" style="shape=partialRectangle;connectable=0;fillColor=none;top=0;left=0;bottom=0;right=0;align=left;spacingLeft=6;fontStyle=5;overflow=hidden;" vertex="1" parent="98w62dLo8Jn5VCTTJ6EJ-116">
                    <mxGeometry x="30" width="150" height="30" as="geometry">
                        <mxRectangle width="150" height="30" as="alternateBounds"/>
                    </mxGeometry>
                </mxCell>
                <mxCell id="98w62dLo8Jn5VCTTJ6EJ-119" value="" style="shape=tableRow;horizontal=0;startSize=0;swimlaneHead=0;swimlaneBody=0;fillColor=none;collapsible=0;dropTarget=0;points=[[0,0.5],[1,0.5]];portConstraint=eastwest;top=0;left=0;right=0;bottom=0;" vertex="1" parent="98w62dLo8Jn5VCTTJ6EJ-115">
                    <mxGeometry y="60" width="180" height="110" as="geometry"/>
                </mxCell>
                <mxCell id="98w62dLo8Jn5VCTTJ6EJ-120" value="" style="shape=partialRectangle;connectable=0;fillColor=none;top=0;left=0;bottom=0;right=0;editable=1;overflow=hidden;" vertex="1" parent="98w62dLo8Jn5VCTTJ6EJ-119">
                    <mxGeometry width="30" height="110" as="geometry">
                        <mxRectangle width="30" height="110" as="alternateBounds"/>
                    </mxGeometry>
                </mxCell>
                <mxCell id="98w62dLo8Jn5VCTTJ6EJ-121" value="data_sessao Date()&#10;hora_inicio Time()&#10;hora_fim Time()&#10;descricao String()" style="shape=partialRectangle;connectable=0;fillColor=none;top=0;left=0;bottom=0;right=0;align=left;spacingLeft=6;overflow=hidden;verticalAlign=top;fontSize=13;" vertex="1" parent="98w62dLo8Jn5VCTTJ6EJ-119">
                    <mxGeometry x="30" width="150" height="110" as="geometry">
                        <mxRectangle width="150" height="110" as="alternateBounds"/>
                    </mxGeometry>
                </mxCell>
                <mxCell id="98w62dLo8Jn5VCTTJ6EJ-122" value="Prontuario" style="shape=table;startSize=30;container=1;collapsible=1;childLayout=tableLayout;fixedRows=1;rowLines=0;fontStyle=1;align=center;resizeLast=1;verticalAlign=middle;" vertex="1" parent="1">
                    <mxGeometry x="230" y="150" width="180" height="170" as="geometry"/>
                </mxCell>
                <mxCell id="98w62dLo8Jn5VCTTJ6EJ-123" value="" style="shape=tableRow;horizontal=0;startSize=0;swimlaneHead=0;swimlaneBody=0;fillColor=none;collapsible=0;dropTarget=0;points=[[0,0.5],[1,0.5]];portConstraint=eastwest;top=0;left=0;right=0;bottom=1;" vertex="1" parent="98w62dLo8Jn5VCTTJ6EJ-122">
                    <mxGeometry y="30" width="180" height="30" as="geometry"/>
                </mxCell>
                <mxCell id="98w62dLo8Jn5VCTTJ6EJ-124" value="PK" style="shape=partialRectangle;connectable=0;fillColor=none;top=0;left=0;bottom=0;right=0;fontStyle=1;overflow=hidden;" vertex="1" parent="98w62dLo8Jn5VCTTJ6EJ-123">
                    <mxGeometry width="30" height="30" as="geometry">
                        <mxRectangle width="30" height="30" as="alternateBounds"/>
                    </mxGeometry>
                </mxCell>
                <mxCell id="98w62dLo8Jn5VCTTJ6EJ-125" value="ID int(3)" style="shape=partialRectangle;connectable=0;fillColor=none;top=0;left=0;bottom=0;right=0;align=left;spacingLeft=6;fontStyle=5;overflow=hidden;" vertex="1" parent="98w62dLo8Jn5VCTTJ6EJ-123">
                    <mxGeometry x="30" width="150" height="30" as="geometry">
                        <mxRectangle width="150" height="30" as="alternateBounds"/>
                    </mxGeometry>
                </mxCell>
                <mxCell id="98w62dLo8Jn5VCTTJ6EJ-126" value="" style="shape=tableRow;horizontal=0;startSize=0;swimlaneHead=0;swimlaneBody=0;fillColor=none;collapsible=0;dropTarget=0;points=[[0,0.5],[1,0.5]];portConstraint=eastwest;top=0;left=0;right=0;bottom=0;" vertex="1" parent="98w62dLo8Jn5VCTTJ6EJ-122">
                    <mxGeometry y="60" width="180" height="110" as="geometry"/>
                </mxCell>
                <mxCell id="98w62dLo8Jn5VCTTJ6EJ-127" value="" style="shape=partialRectangle;connectable=0;fillColor=none;top=0;left=0;bottom=0;right=0;editable=1;overflow=hidden;" vertex="1" parent="98w62dLo8Jn5VCTTJ6EJ-126">
                    <mxGeometry width="30" height="110" as="geometry">
                        <mxRectangle width="30" height="110" as="alternateBounds"/>
                    </mxGeometry>
                </mxCell>
                <mxCell id="98w62dLo8Jn5VCTTJ6EJ-128" value="data_criacao Date()&#10;descricao string()" style="shape=partialRectangle;connectable=0;fillColor=none;top=0;left=0;bottom=0;right=0;align=left;spacingLeft=6;overflow=hidden;verticalAlign=top;fontSize=13;" vertex="1" parent="98w62dLo8Jn5VCTTJ6EJ-126">
                    <mxGeometry x="30" width="150" height="110" as="geometry">
                        <mxRectangle width="150" height="110" as="alternateBounds"/>
                    </mxGeometry>
                </mxCell>
                <mxCell id="98w62dLo8Jn5VCTTJ6EJ-129" value="Acompanhamento" style="shape=table;startSize=30;container=1;collapsible=1;childLayout=tableLayout;fixedRows=1;rowLines=0;fontStyle=1;align=center;resizeLast=1;verticalAlign=middle;" vertex="1" parent="1">
                    <mxGeometry x="230" y="-120" width="180" height="170" as="geometry"/>
                </mxCell>
                <mxCell id="98w62dLo8Jn5VCTTJ6EJ-130" value="" style="shape=tableRow;horizontal=0;startSize=0;swimlaneHead=0;swimlaneBody=0;fillColor=none;collapsible=0;dropTarget=0;points=[[0,0.5],[1,0.5]];portConstraint=eastwest;top=0;left=0;right=0;bottom=1;" vertex="1" parent="98w62dLo8Jn5VCTTJ6EJ-129">
                    <mxGeometry y="30" width="180" height="30" as="geometry"/>
                </mxCell>
                <mxCell id="98w62dLo8Jn5VCTTJ6EJ-131" value="PK" style="shape=partialRectangle;connectable=0;fillColor=none;top=0;left=0;bottom=0;right=0;fontStyle=1;overflow=hidden;" vertex="1" parent="98w62dLo8Jn5VCTTJ6EJ-130">
                    <mxGeometry width="30" height="30" as="geometry">
                        <mxRectangle width="30" height="30" as="alternateBounds"/>
                    </mxGeometry>
                </mxCell>
                <mxCell id="98w62dLo8Jn5VCTTJ6EJ-132" value="ID int(3)" style="shape=partialRectangle;connectable=0;fillColor=none;top=0;left=0;bottom=0;right=0;align=left;spacingLeft=6;fontStyle=5;overflow=hidden;" vertex="1" parent="98w62dLo8Jn5VCTTJ6EJ-130">
                    <mxGeometry x="30" width="150" height="30" as="geometry">
                        <mxRectangle width="150" height="30" as="alternateBounds"/>
                    </mxGeometry>
                </mxCell>
                <mxCell id="98w62dLo8Jn5VCTTJ6EJ-133" value="" style="shape=tableRow;horizontal=0;startSize=0;swimlaneHead=0;swimlaneBody=0;fillColor=none;collapsible=0;dropTarget=0;points=[[0,0.5],[1,0.5]];portConstraint=eastwest;top=0;left=0;right=0;bottom=0;" vertex="1" parent="98w62dLo8Jn5VCTTJ6EJ-129">
                    <mxGeometry y="60" width="180" height="110" as="geometry"/>
                </mxCell>
                <mxCell id="98w62dLo8Jn5VCTTJ6EJ-134" value="" style="shape=partialRectangle;connectable=0;fillColor=none;top=0;left=0;bottom=0;right=0;editable=1;overflow=hidden;" vertex="1" parent="98w62dLo8Jn5VCTTJ6EJ-133">
                    <mxGeometry width="30" height="110" as="geometry">
                        <mxRectangle width="30" height="110" as="alternateBounds"/>
                    </mxGeometry>
                </mxCell>
                <mxCell id="98w62dLo8Jn5VCTTJ6EJ-135" value="Texto string()&#10;data_acomp Date()" style="shape=partialRectangle;connectable=0;fillColor=none;top=0;left=0;bottom=0;right=0;align=left;spacingLeft=6;overflow=hidden;verticalAlign=top;fontSize=13;" vertex="1" parent="98w62dLo8Jn5VCTTJ6EJ-133">
                    <mxGeometry x="30" width="150" height="110" as="geometry">
                        <mxRectangle width="150" height="110" as="alternateBounds"/>
                    </mxGeometry>
                </mxCell>
                <mxCell id="98w62dLo8Jn5VCTTJ6EJ-136" value="Documento" style="shape=table;startSize=30;container=1;collapsible=1;childLayout=tableLayout;fixedRows=1;rowLines=0;fontStyle=1;align=center;resizeLast=1;verticalAlign=middle;" vertex="1" parent="1">
                    <mxGeometry x="540" y="-120" width="180" height="170" as="geometry"/>
                </mxCell>
                <mxCell id="98w62dLo8Jn5VCTTJ6EJ-137" value="" style="shape=tableRow;horizontal=0;startSize=0;swimlaneHead=0;swimlaneBody=0;fillColor=none;collapsible=0;dropTarget=0;points=[[0,0.5],[1,0.5]];portConstraint=eastwest;top=0;left=0;right=0;bottom=1;" vertex="1" parent="98w62dLo8Jn5VCTTJ6EJ-136">
                    <mxGeometry y="30" width="180" height="30" as="geometry"/>
                </mxCell>
                <mxCell id="98w62dLo8Jn5VCTTJ6EJ-138" value="PK" style="shape=partialRectangle;connectable=0;fillColor=none;top=0;left=0;bottom=0;right=0;fontStyle=1;overflow=hidden;" vertex="1" parent="98w62dLo8Jn5VCTTJ6EJ-137">
                    <mxGeometry width="30" height="30" as="geometry">
                        <mxRectangle width="30" height="30" as="alternateBounds"/>
                    </mxGeometry>
                </mxCell>
                <mxCell id="98w62dLo8Jn5VCTTJ6EJ-139" value="ID int(3)" style="shape=partialRectangle;connectable=0;fillColor=none;top=0;left=0;bottom=0;right=0;align=left;spacingLeft=6;fontStyle=5;overflow=hidden;" vertex="1" parent="98w62dLo8Jn5VCTTJ6EJ-137">
                    <mxGeometry x="30" width="150" height="30" as="geometry">
                        <mxRectangle width="150" height="30" as="alternateBounds"/>
                    </mxGeometry>
                </mxCell>
                <mxCell id="98w62dLo8Jn5VCTTJ6EJ-140" value="" style="shape=tableRow;horizontal=0;startSize=0;swimlaneHead=0;swimlaneBody=0;fillColor=none;collapsible=0;dropTarget=0;points=[[0,0.5],[1,0.5]];portConstraint=eastwest;top=0;left=0;right=0;bottom=0;" vertex="1" parent="98w62dLo8Jn5VCTTJ6EJ-136">
                    <mxGeometry y="60" width="180" height="110" as="geometry"/>
                </mxCell>
                <mxCell id="98w62dLo8Jn5VCTTJ6EJ-141" value="" style="shape=partialRectangle;connectable=0;fillColor=none;top=0;left=0;bottom=0;right=0;editable=1;overflow=hidden;" vertex="1" parent="98w62dLo8Jn5VCTTJ6EJ-140">
                    <mxGeometry width="30" height="110" as="geometry">
                        <mxRectangle width="30" height="110" as="alternateBounds"/>
                    </mxGeometry>
                </mxCell>
                <mxCell id="98w62dLo8Jn5VCTTJ6EJ-142" value="nome_arquivo string()&#10;tipo string()&#10;data_upload Date()" style="shape=partialRectangle;connectable=0;fillColor=none;top=0;left=0;bottom=0;right=0;align=left;spacingLeft=6;overflow=hidden;verticalAlign=top;fontSize=13;" vertex="1" parent="98w62dLo8Jn5VCTTJ6EJ-140">
                    <mxGeometry x="30" width="150" height="110" as="geometry">
                        <mxRectangle width="150" height="110" as="alternateBounds"/>
                    </mxGeometry>
                </mxCell>
            </root>
        </mxGraphModel>
    </diagram>
</mxfile>